<mxfile host="app.diagrams.net" agent="Mozilla/5.0 (Windows NT 10.0; Win64; x64) AppleWebKit/537.36 (KHTML, like Gecko) Chrome/128.0.0.0 Safari/537.36" version="24.7.12">
  <diagram name="ページ1" id="9uj0oaKwGcR9AODOr1Fj">
    <mxGraphModel dx="988" dy="523" grid="1" gridSize="10" guides="1" tooltips="1" connect="1" arrows="1" fold="1" page="1" pageScale="1" pageWidth="827" pageHeight="1169" math="0" shadow="0">
      <root>
        <mxCell id="0" />
        <mxCell id="1" parent="0" />
        <mxCell id="Cd58vTRSSTUxn1B4rG9A-5" value="" style="edgeStyle=orthogonalEdgeStyle;rounded=0;orthogonalLoop=1;jettySize=auto;html=1;" edge="1" parent="1" target="Cd58vTRSSTUxn1B4rG9A-4">
          <mxGeometry relative="1" as="geometry">
            <mxPoint x="260" y="510" as="sourcePoint" />
          </mxGeometry>
        </mxCell>
        <mxCell id="Cd58vTRSSTUxn1B4rG9A-7" value="" style="edgeStyle=orthogonalEdgeStyle;rounded=0;orthogonalLoop=1;jettySize=auto;html=1;" edge="1" parent="1" target="Cd58vTRSSTUxn1B4rG9A-4">
          <mxGeometry relative="1" as="geometry">
            <mxPoint x="260" y="510" as="sourcePoint" />
          </mxGeometry>
        </mxCell>
        <mxCell id="Cd58vTRSSTUxn1B4rG9A-8" value="" style="edgeStyle=orthogonalEdgeStyle;rounded=0;orthogonalLoop=1;jettySize=auto;html=1;" edge="1" parent="1" target="Cd58vTRSSTUxn1B4rG9A-4">
          <mxGeometry relative="1" as="geometry">
            <mxPoint x="260" y="510" as="sourcePoint" />
          </mxGeometry>
        </mxCell>
        <mxCell id="Cd58vTRSSTUxn1B4rG9A-9" value="" style="edgeStyle=orthogonalEdgeStyle;rounded=0;orthogonalLoop=1;jettySize=auto;html=1;exitX=1;exitY=0.5;exitDx=0;exitDy=0;" edge="1" parent="1" source="Cd58vTRSSTUxn1B4rG9A-1" target="Cd58vTRSSTUxn1B4rG9A-4">
          <mxGeometry relative="1" as="geometry">
            <mxPoint x="260" y="510" as="sourcePoint" />
            <Array as="points">
              <mxPoint x="291" y="510" />
              <mxPoint x="290" y="511" />
              <mxPoint x="290" y="550" />
            </Array>
          </mxGeometry>
        </mxCell>
        <mxCell id="Cd58vTRSSTUxn1B4rG9A-1" value="InputData" style="rounded=0;whiteSpace=wrap;html=1;" vertex="1" parent="1">
          <mxGeometry x="10" y="480" width="120" height="60" as="geometry" />
        </mxCell>
        <mxCell id="Cd58vTRSSTUxn1B4rG9A-4" value="Prev Hand Pos" style="whiteSpace=wrap;html=1;rounded=0;" vertex="1" parent="1">
          <mxGeometry x="320" y="530" width="50" height="40" as="geometry" />
        </mxCell>
        <mxCell id="Cd58vTRSSTUxn1B4rG9A-10" value="" style="endArrow=classic;html=1;rounded=0;" edge="1" parent="1">
          <mxGeometry width="50" height="50" relative="1" as="geometry">
            <mxPoint x="290" y="510" as="sourcePoint" />
            <mxPoint x="320" y="510" as="targetPoint" />
          </mxGeometry>
        </mxCell>
        <mxCell id="Cd58vTRSSTUxn1B4rG9A-11" value="Prev Eye Pos" style="rounded=0;whiteSpace=wrap;html=1;" vertex="1" parent="1">
          <mxGeometry x="320" y="495" width="50" height="30" as="geometry" />
        </mxCell>
        <mxCell id="Cd58vTRSSTUxn1B4rG9A-17" value="" style="endArrow=none;html=1;rounded=0;" edge="1" parent="1">
          <mxGeometry width="50" height="50" relative="1" as="geometry">
            <mxPoint x="290" y="510" as="sourcePoint" />
            <mxPoint x="290" y="360" as="targetPoint" />
          </mxGeometry>
        </mxCell>
        <mxCell id="Cd58vTRSSTUxn1B4rG9A-18" value="" style="endArrow=none;html=1;rounded=0;" edge="1" parent="1">
          <mxGeometry width="50" height="50" relative="1" as="geometry">
            <mxPoint x="290" y="680" as="sourcePoint" />
            <mxPoint x="290" y="550" as="targetPoint" />
          </mxGeometry>
        </mxCell>
        <mxCell id="Cd58vTRSSTUxn1B4rG9A-19" value="" style="endArrow=classic;html=1;rounded=0;" edge="1" parent="1">
          <mxGeometry width="50" height="50" relative="1" as="geometry">
            <mxPoint x="290" y="470" as="sourcePoint" />
            <mxPoint x="320" y="470" as="targetPoint" />
          </mxGeometry>
        </mxCell>
        <mxCell id="Cd58vTRSSTUxn1B4rG9A-21" value="" style="endArrow=classic;html=1;rounded=0;" edge="1" parent="1">
          <mxGeometry width="50" height="50" relative="1" as="geometry">
            <mxPoint x="290" y="360" as="sourcePoint" />
            <mxPoint x="320" y="360" as="targetPoint" />
          </mxGeometry>
        </mxCell>
        <mxCell id="Cd58vTRSSTUxn1B4rG9A-22" value="" style="endArrow=classic;html=1;rounded=0;" edge="1" parent="1">
          <mxGeometry width="50" height="50" relative="1" as="geometry">
            <mxPoint x="290" y="590" as="sourcePoint" />
            <mxPoint x="320" y="590" as="targetPoint" />
          </mxGeometry>
        </mxCell>
        <mxCell id="Cd58vTRSSTUxn1B4rG9A-24" value="" style="endArrow=classic;html=1;rounded=0;" edge="1" parent="1">
          <mxGeometry width="50" height="50" relative="1" as="geometry">
            <mxPoint x="290" y="680" as="sourcePoint" />
            <mxPoint x="320" y="680" as="targetPoint" />
          </mxGeometry>
        </mxCell>
        <mxCell id="Cd58vTRSSTUxn1B4rG9A-25" value="" style="endArrow=classic;html=1;rounded=0;" edge="1" parent="1">
          <mxGeometry width="50" height="50" relative="1" as="geometry">
            <mxPoint x="500" y="720" as="sourcePoint" />
            <mxPoint x="530" y="720" as="targetPoint" />
          </mxGeometry>
        </mxCell>
        <mxCell id="Cd58vTRSSTUxn1B4rG9A-26" value="" style="endArrow=classic;html=1;rounded=0;" edge="1" parent="1">
          <mxGeometry width="50" height="50" relative="1" as="geometry">
            <mxPoint x="560" y="740" as="sourcePoint" />
            <mxPoint x="590" y="740" as="targetPoint" />
          </mxGeometry>
        </mxCell>
        <mxCell id="Cd58vTRSSTUxn1B4rG9A-27" value="" style="endArrow=none;dashed=1;html=1;rounded=0;" edge="1" parent="1">
          <mxGeometry width="50" height="50" relative="1" as="geometry">
            <mxPoint x="345" y="660" as="sourcePoint" />
            <mxPoint x="345" y="630" as="targetPoint" />
          </mxGeometry>
        </mxCell>
        <mxCell id="Cd58vTRSSTUxn1B4rG9A-28" value="LLM" style="whiteSpace=wrap;html=1;rounded=0;" vertex="1" parent="1">
          <mxGeometry x="510" y="490" width="50" height="30" as="geometry" />
        </mxCell>
        <mxCell id="Cd58vTRSSTUxn1B4rG9A-29" value="Prev Utter" style="whiteSpace=wrap;html=1;rounded=0;" vertex="1" parent="1">
          <mxGeometry x="320" y="350" width="50" height="30" as="geometry" />
        </mxCell>
        <mxCell id="Cd58vTRSSTUxn1B4rG9A-30" value="LLM" style="whiteSpace=wrap;html=1;rounded=0;" vertex="1" parent="1">
          <mxGeometry x="510" y="350" width="50" height="30" as="geometry" />
        </mxCell>
        <mxCell id="Cd58vTRSSTUxn1B4rG9A-31" value="Prev Emotion" style="whiteSpace=wrap;html=1;rounded=0;" vertex="1" parent="1">
          <mxGeometry x="320" y="450" width="50" height="30" as="geometry" />
        </mxCell>
        <mxCell id="Cd58vTRSSTUxn1B4rG9A-32" value="Dialect" style="whiteSpace=wrap;html=1;rounded=0;" vertex="1" parent="1">
          <mxGeometry x="320" y="670" width="50" height="30" as="geometry" />
        </mxCell>
        <mxCell id="Cd58vTRSSTUxn1B4rG9A-33" value="Prev Voice Volumn" style="whiteSpace=wrap;html=1;rounded=0;" vertex="1" parent="1">
          <mxGeometry x="320" y="580" width="50" height="40" as="geometry" />
        </mxCell>
        <mxCell id="Cd58vTRSSTUxn1B4rG9A-34" value="LLM" style="whiteSpace=wrap;html=1;rounded=0;" vertex="1" parent="1">
          <mxGeometry x="510" y="580" width="50" height="30" as="geometry" />
        </mxCell>
        <mxCell id="Cd58vTRSSTUxn1B4rG9A-35" value="" style="endArrow=none;dashed=1;html=1;rounded=0;" edge="1" parent="1">
          <mxGeometry width="50" height="50" relative="1" as="geometry">
            <mxPoint x="344.76" y="440" as="sourcePoint" />
            <mxPoint x="344.76" y="390" as="targetPoint" />
          </mxGeometry>
        </mxCell>
        <mxCell id="Cd58vTRSSTUxn1B4rG9A-38" value="" style="curved=1;endArrow=classic;html=1;rounded=0;entryX=0;entryY=0.5;entryDx=0;entryDy=0;exitX=1;exitY=0.657;exitDx=0;exitDy=0;exitPerimeter=0;" edge="1" parent="1" source="Cd58vTRSSTUxn1B4rG9A-31" target="Cd58vTRSSTUxn1B4rG9A-28">
          <mxGeometry width="50" height="50" relative="1" as="geometry">
            <mxPoint x="370" y="470" as="sourcePoint" />
            <mxPoint x="500" y="510" as="targetPoint" />
            <Array as="points">
              <mxPoint x="400" y="460" />
            </Array>
          </mxGeometry>
        </mxCell>
        <mxCell id="Cd58vTRSSTUxn1B4rG9A-40" value="" style="curved=1;endArrow=classic;html=1;rounded=0;exitX=1;exitY=0.5;exitDx=0;exitDy=0;entryX=-0.058;entryY=1.069;entryDx=0;entryDy=0;entryPerimeter=0;" edge="1" parent="1" source="Cd58vTRSSTUxn1B4rG9A-31" target="Cd58vTRSSTUxn1B4rG9A-30">
          <mxGeometry width="50" height="50" relative="1" as="geometry">
            <mxPoint x="380" y="470" as="sourcePoint" />
            <mxPoint x="510" y="410" as="targetPoint" />
            <Array as="points">
              <mxPoint x="410" y="470" />
            </Array>
          </mxGeometry>
        </mxCell>
        <mxCell id="Cd58vTRSSTUxn1B4rG9A-41" value="" style="curved=1;endArrow=classic;html=1;rounded=0;exitX=1;exitY=0.5;exitDx=0;exitDy=0;entryX=0;entryY=0.5;entryDx=0;entryDy=0;" edge="1" parent="1" target="Cd58vTRSSTUxn1B4rG9A-30">
          <mxGeometry width="50" height="50" relative="1" as="geometry">
            <mxPoint x="370" y="365" as="sourcePoint" />
            <mxPoint x="510" y="410" as="targetPoint" />
            <Array as="points">
              <mxPoint x="400" y="360" />
            </Array>
          </mxGeometry>
        </mxCell>
        <mxCell id="Cd58vTRSSTUxn1B4rG9A-42" value="" style="curved=1;endArrow=classic;html=1;rounded=0;entryX=0;entryY=0.5;entryDx=0;entryDy=0;exitX=1;exitY=0.5;exitDx=0;exitDy=0;" edge="1" parent="1">
          <mxGeometry width="50" height="50" relative="1" as="geometry">
            <mxPoint x="370" y="555" as="sourcePoint" />
            <mxPoint x="510" y="600" as="targetPoint" />
            <Array as="points">
              <mxPoint x="400" y="550" />
            </Array>
          </mxGeometry>
        </mxCell>
        <mxCell id="Cd58vTRSSTUxn1B4rG9A-43" value="" style="curved=1;endArrow=classic;html=1;rounded=0;exitX=1;exitY=0.5;exitDx=0;exitDy=0;" edge="1" parent="1">
          <mxGeometry width="50" height="50" relative="1" as="geometry">
            <mxPoint x="370" y="685" as="sourcePoint" />
            <mxPoint x="510" y="600" as="targetPoint" />
            <Array as="points">
              <mxPoint x="410" y="690" />
            </Array>
          </mxGeometry>
        </mxCell>
        <mxCell id="Cd58vTRSSTUxn1B4rG9A-44" value="" style="curved=1;endArrow=classic;html=1;rounded=0;exitX=1;exitY=0.5;exitDx=0;exitDy=0;entryX=-0.046;entryY=0.646;entryDx=0;entryDy=0;entryPerimeter=0;" edge="1" parent="1" target="Cd58vTRSSTUxn1B4rG9A-30">
          <mxGeometry width="50" height="50" relative="1" as="geometry">
            <mxPoint x="370" y="515" as="sourcePoint" />
            <mxPoint x="510" y="460" as="targetPoint" />
            <Array as="points">
              <mxPoint x="410" y="520" />
              <mxPoint x="440" y="430" />
            </Array>
          </mxGeometry>
        </mxCell>
        <mxCell id="Cd58vTRSSTUxn1B4rG9A-45" value="" style="curved=1;endArrow=classic;html=1;rounded=0;exitX=1;exitY=0.5;exitDx=0;exitDy=0;entryX=0;entryY=0.75;entryDx=0;entryDy=0;" edge="1" parent="1" target="Cd58vTRSSTUxn1B4rG9A-28">
          <mxGeometry width="50" height="50" relative="1" as="geometry">
            <mxPoint x="370" y="595" as="sourcePoint" />
            <mxPoint x="510" y="540" as="targetPoint" />
            <Array as="points">
              <mxPoint x="410" y="600" />
            </Array>
          </mxGeometry>
        </mxCell>
        <mxCell id="Cd58vTRSSTUxn1B4rG9A-46" value="" style="endArrow=classic;html=1;rounded=0;" edge="1" parent="1">
          <mxGeometry width="50" height="50" relative="1" as="geometry">
            <mxPoint x="560" y="364.76" as="sourcePoint" />
            <mxPoint x="590" y="364.76" as="targetPoint" />
          </mxGeometry>
        </mxCell>
        <mxCell id="Cd58vTRSSTUxn1B4rG9A-47" value="" style="endArrow=classic;html=1;rounded=0;" edge="1" parent="1">
          <mxGeometry width="50" height="50" relative="1" as="geometry">
            <mxPoint x="560" y="594.76" as="sourcePoint" />
            <mxPoint x="590" y="594.76" as="targetPoint" />
          </mxGeometry>
        </mxCell>
        <mxCell id="Cd58vTRSSTUxn1B4rG9A-48" value="" style="endArrow=classic;html=1;rounded=0;" edge="1" parent="1">
          <mxGeometry width="50" height="50" relative="1" as="geometry">
            <mxPoint x="560" y="504.76" as="sourcePoint" />
            <mxPoint x="590" y="504.76" as="targetPoint" />
          </mxGeometry>
        </mxCell>
        <mxCell id="Cd58vTRSSTUxn1B4rG9A-49" value="" style="endArrow=none;dashed=1;html=1;rounded=0;" edge="1" parent="1">
          <mxGeometry width="50" height="50" relative="1" as="geometry">
            <mxPoint x="535" y="480" as="sourcePoint" />
            <mxPoint x="534.76" y="400" as="targetPoint" />
          </mxGeometry>
        </mxCell>
        <mxCell id="Cd58vTRSSTUxn1B4rG9A-50" value="" style="endArrow=none;dashed=1;html=1;rounded=0;" edge="1" parent="1">
          <mxGeometry width="50" height="50" relative="1" as="geometry">
            <mxPoint x="534.76" y="575" as="sourcePoint" />
            <mxPoint x="535" y="530" as="targetPoint" />
          </mxGeometry>
        </mxCell>
        <mxCell id="Cd58vTRSSTUxn1B4rG9A-51" value="Next Utter" style="rounded=0;whiteSpace=wrap;html=1;" vertex="1" parent="1">
          <mxGeometry x="590" y="347.5" width="60" height="35" as="geometry" />
        </mxCell>
        <mxCell id="Cd58vTRSSTUxn1B4rG9A-52" value="Next Eye Pos" style="rounded=0;whiteSpace=wrap;html=1;" vertex="1" parent="1">
          <mxGeometry x="590" y="485" width="60" height="35" as="geometry" />
        </mxCell>
        <mxCell id="Cd58vTRSSTUxn1B4rG9A-53" value="Next Voice Volumn" style="rounded=0;whiteSpace=wrap;html=1;" vertex="1" parent="1">
          <mxGeometry x="590" y="577.5" width="60" height="35" as="geometry" />
        </mxCell>
        <mxCell id="Cd58vTRSSTUxn1B4rG9A-54" value="" style="endArrow=none;dashed=1;html=1;rounded=0;" edge="1" parent="1">
          <mxGeometry width="50" height="50" relative="1" as="geometry">
            <mxPoint x="535" y="672.5" as="sourcePoint" />
            <mxPoint x="534.76" y="612.5" as="targetPoint" />
          </mxGeometry>
        </mxCell>
        <mxCell id="Cd58vTRSSTUxn1B4rG9A-55" value="Prev Speaker" style="rounded=0;whiteSpace=wrap;html=1;" vertex="1" parent="1">
          <mxGeometry x="20" y="250" width="350" height="60" as="geometry" />
        </mxCell>
        <mxCell id="Cd58vTRSSTUxn1B4rG9A-56" value="Next Speaker" style="rounded=0;whiteSpace=wrap;html=1;" vertex="1" parent="1">
          <mxGeometry x="480" y="250" width="275" height="60" as="geometry" />
        </mxCell>
        <mxCell id="Cd58vTRSSTUxn1B4rG9A-57" value="LLM" style="whiteSpace=wrap;html=1;rounded=0;" vertex="1" parent="1">
          <mxGeometry x="510" y="670" width="50" height="30" as="geometry" />
        </mxCell>
        <mxCell id="Cd58vTRSSTUxn1B4rG9A-58" value="Next Dialect" style="rounded=0;whiteSpace=wrap;html=1;" vertex="1" parent="1">
          <mxGeometry x="590" y="667.5" width="60" height="35" as="geometry" />
        </mxCell>
        <mxCell id="Cd58vTRSSTUxn1B4rG9A-59" value="" style="endArrow=classic;html=1;rounded=0;" edge="1" parent="1">
          <mxGeometry width="50" height="50" relative="1" as="geometry">
            <mxPoint x="560" y="684.76" as="sourcePoint" />
            <mxPoint x="590" y="684.76" as="targetPoint" />
          </mxGeometry>
        </mxCell>
        <mxCell id="Cd58vTRSSTUxn1B4rG9A-60" value="" style="curved=1;endArrow=classic;html=1;rounded=0;exitX=1;exitY=0.75;exitDx=0;exitDy=0;entryX=0;entryY=0.5;entryDx=0;entryDy=0;" edge="1" parent="1" source="Cd58vTRSSTUxn1B4rG9A-29" target="Cd58vTRSSTUxn1B4rG9A-57">
          <mxGeometry width="50" height="50" relative="1" as="geometry">
            <mxPoint x="380" y="375" as="sourcePoint" />
            <mxPoint x="520" y="375" as="targetPoint" />
            <Array as="points">
              <mxPoint x="410" y="370" />
              <mxPoint x="440" y="540" />
            </Array>
          </mxGeometry>
        </mxCell>
        <mxCell id="Cd58vTRSSTUxn1B4rG9A-61" value="" style="curved=1;endArrow=classic;html=1;rounded=0;exitX=1.069;exitY=0.657;exitDx=0;exitDy=0;exitPerimeter=0;" edge="1" parent="1" source="Cd58vTRSSTUxn1B4rG9A-32">
          <mxGeometry width="50" height="50" relative="1" as="geometry">
            <mxPoint x="380" y="695" as="sourcePoint" />
            <mxPoint x="510" y="690" as="targetPoint" />
            <Array as="points">
              <mxPoint x="420" y="700" />
            </Array>
          </mxGeometry>
        </mxCell>
        <mxCell id="Cd58vTRSSTUxn1B4rG9A-62" value="Processing" style="text;html=1;align=center;verticalAlign=middle;whiteSpace=wrap;rounded=0;" vertex="1" parent="1">
          <mxGeometry x="180" y="480" width="60" height="30" as="geometry" />
        </mxCell>
      </root>
    </mxGraphModel>
  </diagram>
</mxfile>
